<?xml version="1.0" encoding="UTF-8" standalone="no"?>
<!-- Uploaded to: SVG Repo, www.svgrepo.com, Generator: SVG Repo Mixer Tools -->

<svg
   fill="#000000"
   height="800px"
   width="800px"
   version="1.1"
   id="Layer_1"
   viewBox="0 0 512 512"
   xml:space="preserve"
   sodipodi:docname="plus-icon.svg"
   inkscape:version="1.4 (e7c3feb100, 2024-10-09)"
   xmlns:inkscape="http://www.inkscape.org/namespaces/inkscape"
   xmlns:sodipodi="http://sodipodi.sourceforge.net/DTD/sodipodi-0.dtd"
   xmlns="http://www.w3.org/2000/svg"
   xmlns:svg="http://www.w3.org/2000/svg"><defs
   id="defs4" /><sodipodi:namedview
   id="namedview4"
   pagecolor="#505050"
   bordercolor="#eeeeee"
   borderopacity="1"
   inkscape:showpageshadow="0"
   inkscape:pageopacity="0"
   inkscape:pagecheckerboard="0"
   inkscape:deskcolor="#505050"
   inkscape:zoom="0.97875"
   inkscape:cx="399.48914"
   inkscape:cy="400"
   inkscape:window-width="1920"
   inkscape:window-height="1011"
   inkscape:window-x="0"
   inkscape:window-y="0"
   inkscape:window-maximized="1"
   inkscape:current-layer="Layer_1" />
<g
   id="g2"
   style="fill:#ffffff;fill-opacity:1">
	<g
   id="g1"
   style="fill:#ffffff;fill-opacity:1">
		<path
   d="M256,0C114.611,0,0,114.611,0,256s114.611,256,256,256s256-114.611,256-256S397.389,0,256,0z M256,486.4    C128.759,486.4,25.6,383.249,25.6,256S128.759,25.6,256,25.6S486.4,128.759,486.4,256S383.241,486.4,256,486.4z"
   id="path1"
   style="fill:#ffffff;fill-opacity:1" />
	</g>
</g>
<g
   id="g4"
   style="fill:#ffffff;fill-opacity:1">
	<g
   id="g3"
   style="fill:#ffffff;fill-opacity:1">
		<path
   d="M384,243.2H268.8V128c0-7.066-5.734-12.8-12.8-12.8c-7.066,0-12.8,5.734-12.8,12.8v115.2H128    c-7.066,0-12.8,5.734-12.8,12.8c0,7.066,5.734,12.8,12.8,12.8h115.2V384c0,7.066,5.734,12.8,12.8,12.8    c7.066,0,12.8-5.734,12.8-12.8V268.8H384c7.066,0,12.8-5.734,12.8-12.8C396.8,248.934,391.066,243.2,384,243.2z"
   id="path2"
   style="fill:#ffffff;fill-opacity:1" />
	</g>
</g>
</svg>
